<?xml version="1.0" encoding="utf-8"?>
<!-- Generator: Adobe Illustrator 22.1.0, SVG Export Plug-In . SVG Version: 6.00 Build 0)  -->
<svg version="1.1" id="Layer_1" xmlns:x="&ns_extend;" xmlns:i="&ns_ai;" xmlns:graph="&ns_graphs;"
	 xmlns="http://www.w3.org/2000/svg" xmlns:xlink="http://www.w3.org/1999/xlink" x="0px" y="0px" viewBox="0 0 1000 1000"
	 style="enable-background:new 0 0 1000 1000;" xml:space="preserve">
<style type="text/css">
	.st0{fill:#9900FF;}
	.st1{fill:#CC66FF;}
	.st2{fill:#CC33FF;}
	.st3{fill:#CC99FF;}
	.st4{fill:#22205F;}
	.st5{fill:#3B2F8D;}
	.st6{fill:#352063;}
	.st7{fill:#2B3086;}
	.st8{fill:#9900CC;}
	.st9{fill:#330099;}
	.st10{fill:#CCCCFF;}
	.st11{fill:#9966FF;}
	.st12{fill:#9933FF;}
	.st13{fill:#CC00FF;}
	.st14{fill:#FFCCFF;}
	.st15{fill:#62449A;}
	.st16{fill:#652C8F;}
	.st17{fill:#844399;}
	.st18{fill:#6600CC;}
	.st19{fill:#660099;}
	.st20{fill:#330066;}
	.st21{fill:#000066;}
	.st22{fill:#7951A0;}
	.st23{fill:#A170AF;}
	.st24{fill:#B79AC8;}
	.st25{fill:#FFFFFF;}
	.st26{fill:#DB9EC6;}
	.st27{fill:#EECDE1;}
	.st28{fill:#7E69AD;}
	.st29{fill:#7B57A3;}
	.st30{fill:#6600FF;}
	.st31{fill:#3300CC;}
	.st32{fill:#6633FF;}
	.st33{fill:#000099;}
	.st34{fill:#262261;}
	.st35{fill:#662D91;}
	.st36{fill:#0000CC;}
	.st37{fill:#43459B;}
</style>
<metadata><?xpacket begin="﻿" id="W5M0MpCehiHzreSzNTczkc9d"?>
<x:xmpmeta xmlns:x="adobe:ns:meta/" x:xmptk="Adobe XMP Core 5.6-c143 79.161356, 2017/09/07-01:11:22        ">
   <rdf:RDF xmlns:rdf="http://www.w3.org/1999/02/22-rdf-syntax-ns#">
      <rdf:Description rdf:about=""
            xmlns:xmp="http://ns.adobe.com/xap/1.0/"
            xmlns:xmpGImg="http://ns.adobe.com/xap/1.0/g/img/"
            xmlns:xmpTPg="http://ns.adobe.com/xap/1.0/t/pg/"
            xmlns:stDim="http://ns.adobe.com/xap/1.0/sType/Dimensions#"
            xmlns:xmpG="http://ns.adobe.com/xap/1.0/g/"
            xmlns:dc="http://purl.org/dc/elements/1.1/">
         <xmp:CreatorTool>Adobe Illustrator CC 22.1 (Macintosh)</xmp:CreatorTool>
         <xmp:CreateDate>2019-01-19T00:07:47-05:00</xmp:CreateDate>
         <xmp:Thumbnails>
            <rdf:Alt>
               <rdf:li rdf:parseType="Resource">
                  <xmpGImg:width>120</xmpGImg:width>
                  <xmpGImg:height>256</xmpGImg:height>
                  <xmpGImg:format>JPEG</xmpGImg:format>
                  <xmpGImg:image>/9j/4AAQSkZJRgABAgEASABIAAD/7QAsUGhvdG9zaG9wIDMuMAA4QklNA+0AAAAAABAASAAAAAEA&#xA;AQBIAAAAAQAB/+4ADkFkb2JlAGTAAAAAAf/bAIQABgQEBAUEBgUFBgkGBQYJCwgGBggLDAoKCwoK&#xA;DBAMDAwMDAwQDA4PEA8ODBMTFBQTExwbGxscHx8fHx8fHx8fHwEHBwcNDA0YEBAYGhURFRofHx8f&#xA;Hx8fHx8fHx8fHx8fHx8fHx8fHx8fHx8fHx8fHx8fHx8fHx8fHx8fHx8fHx8f/8AAEQgBAAB4AwER&#xA;AAIRAQMRAf/EAaIAAAAHAQEBAQEAAAAAAAAAAAQFAwIGAQAHCAkKCwEAAgIDAQEBAQEAAAAAAAAA&#xA;AQACAwQFBgcICQoLEAACAQMDAgQCBgcDBAIGAnMBAgMRBAAFIRIxQVEGE2EicYEUMpGhBxWxQiPB&#xA;UtHhMxZi8CRygvElQzRTkqKyY3PCNUQnk6OzNhdUZHTD0uIIJoMJChgZhJRFRqS0VtNVKBry4/PE&#xA;1OT0ZXWFlaW1xdXl9WZ2hpamtsbW5vY3R1dnd4eXp7fH1+f3OEhYaHiImKi4yNjo+Ck5SVlpeYmZ&#xA;qbnJ2en5KjpKWmp6ipqqusra6voRAAICAQIDBQUEBQYECAMDbQEAAhEDBCESMUEFURNhIgZxgZEy&#xA;obHwFMHR4SNCFVJicvEzJDRDghaSUyWiY7LCB3PSNeJEgxdUkwgJChgZJjZFGidkdFU38qOzwygp&#xA;0+PzhJSktMTU5PRldYWVpbXF1eX1RlZmdoaWprbG1ub2R1dnd4eXp7fH1+f3OEhYaHiImKi4yNjo&#xA;+DlJWWl5iZmpucnZ6fkqOkpaanqKmqq6ytrq+v/aAAwDAQACEQMRAD8A9U4q7FXYq7FXYqgtU1iw&#xA;0uJJLuTj6hKxoBVmIFTQZdg088pqLOGMy5JLF54gnuhFBat6Q3eR2Abj02UV/XmbLs0xjZO6cmPh&#xA;FlE+YbyO50ySOBuaPEz1HjQ0H35XpMZjME97fpoWDJ55deZbnR7GW9kvZYbeBeT0dqeAAWtCSdhm&#xA;+GmjkNcIJLaYA9Gcflh5iu/MXkmw1e7YG5uHuOYBBKhLiREU0puEVc0PaeCOLPKEeQr7g4eUASoM&#xA;pzAa3Yq7FXYq7FXYq7FXYq7FXYq8k/MXW2u/MH1eJv3Wnj01p09U7yH76L9GdZ2TpuDFZ5z+7o7v&#xA;RYax2f4kDa+adD062e51C5SGQgAQirSHr0QVah8emXT0eTJLhgLddr4GJAX+XfzR0C9vLmK7ubfS&#xA;rCNB6Ul/cRQySux/YViBRQN6E9RlHaPZx08Ykm5S7vJhpJgWCdnj35k+d7TUb02Ftcxtp1m5BZHD&#xA;epKKqWoCfhXov35tNLPHjFk7ly+IPoD/AJx9aR/yv06QoVieW4aBiCOaGVviod/tVH0ZyvbOSM9Q&#xA;TE3ycLMbk9HzVNTsVdirsVdiqiL6zIBEyEHcGoyfhy7mzwpdy+OeGUkRuHK0rQ1pXpgMSObGUSOa&#xA;/IsXYqlnmbW4tD0G91WQchaxlkTb4nJ4ou5HViBmTo9Oc2WMB1P9rPHDikA+SNa8/wCq30kn1f8A&#xA;0ZJCS8leUrE1qS3avsK++eh49PGIdvLOeQ2DFIbuSW5nkMrGWoo1ak9eTch13zKMeEB1eDL4k5Xy&#xA;SzX9QllccjUwjirAUPJt+3hTNLqJHPqBE/TD8fscPWyEb4UP5e0O91/XdP0ey/eXeozRwRtStGkI&#xA;DM3su5b5ZrtSRAyJ6OXgneMHyfoHomkWWjaPZaTYpwtLCCO3gXvxjUKCfc0qTnLTkZEk9Wsm0bkU&#xA;OxV2KuxV2KvONF1iOKBoLlqCJS0bHuB+z/TOi1GnJNx6u1jJFeVtak/T7es1I70cOPYMN4/6fTle&#xA;t0w8Lb+H8Fx84sWz3NC4TsVeWfnvrfpabYaNG3x3UhuJwP5ItlB/1mav+xzqPZnTXOWQ/wAIofH8&#xA;fa5ujhuS+aPMEf1S5lI2Enxx7j9rr9xrnXiPqXWz4InzSeyfg0jca1Rgp7VWjdfkMjrMvBjMu51m&#xA;kkRL4FIbyUvKQf2a1/1j17DNTocXDDiPOW7g558UnvH/ADid5O+u+Yb3zRcwkQ6RF9Ws2ZTRri4B&#xA;5MCe6Q7Ef5YzRdu5Klwj+Jz9NM+HXm+qM51tdirsVdirsVdir5z83XjXEMtnCdowWJB6yLuN/wDJ&#xA;/Xnomgx8JEj1+5ysxsUx3SPzE1TSuMl231mCGjB3NJV47gh+/wDsvvzN1fZuKUSfp+75NEM5Gx3f&#xA;T3l3WYdb0DTtYgUrFqNtFdIhpVRKgfiaV3WtDnmWbHwTMe40wTDK1fMHn7zjaeZPOWoSQNWG0f6r&#xA;amtQ8UJI5rt0Z+TfTno3Y+n8HAInmdz8XaaYVGnmnnO653cduvwhE5Gm+7H3r2GbGeMkbHd1/aGU&#xA;cYB6BJ7RDFa3NzMSWZSgO5qD+sFqfdmi1QJkIFOIDgMki4OJOKr8ZNABWpJ22rvvmLkzzOxNMcem&#xA;xx3AfeH5TeTV8oeQtL0d0C3vp/WNQI73M3xSA/6myD2GctqMvHMlEjZZflDFoso6kD5nDSaLQljJ&#xA;4hwT4AiuJBUxK7Ah2KuxV8n6jey6Zr2pabcAvFbXU8Nf2lCSMv0jbPVcWMZMUZjYmIP2JjkI2Lzz&#xA;zJJeTymC3hkazU1EgUkPvsdu2Q1M5z2ANMKp9YfkBqDXn5VaMslRPZ+tayqRQj05m4Cn/GNlzz7t&#xA;bGYaiXnuyTP82PND+XPJF/dW7EX9yPqljxryEs1RyFO6Jyb6MeytJ4+eMa2G5+DbhhxSp8l21jfR&#xA;yCRaRshBBJ/pXPRo4pF2kcMkk12WeTUrlyoDlqHepoFoKdumQzHIBt9jo89HLLi52o6hJxtIIBU0&#xA;USSk70Jr3/1i2aTHIGRmS5Ej6QAy/wDIjytaeY/zO0yG5IaDTuWoTR9efoUMYr0p6rJX2rmt7UzR&#xA;ECY8zsosRfaN1d21pA1xcyLFCgqzsaD/AG85qEDI0ObWATyYLf8AnG5n1SCaHlHZW7hhF3cdGLfM&#xA;dPDN7i7PjHGQfqLlRwgDzZbqGo6HaQLNdNHSReUYABdwehUDf6c0gMwaa8cckjUbYTq3nS3hkEsV&#xA;vFDbIdxM7Bm+kMOJy+MTLYuZPGYx3lupN+cukQUbhISKc7cH1UIHUrKeLKfajZL8nJwxGJ2LPdB1&#xA;3T9c02LULCQSQybGhqVYdVPuMxJwMTRa5w4TSYZFg+Wvzk8uyx+eNWEMhHqyLcCNqBW9VFc0oB0Y&#xA;kb56L2RkOTSw8hXyNOwwYgY2ObAry/On2CtOP9IpwjiPUldhUeAFDm2OcQx+bg541MvWv+cU/Ns0&#xA;8+ueXrqQu78dStgfHaGb/mXQDOH7fxkmOT4H9H6WKn/zkn5na48xWGhW7kJpkRnn4mn764pQH/Vj&#xA;UEf62Z3s5p+HGcnWR29w/b9zmaYULeW2upq9Enordn6A/PwzqoZu92WPP0KS6nGDqk79qjj/AMCN&#xA;8w9dquAcMfqLz+qh++l70nv4la4cncMzFCPDkR/DNHgwiePzbYz4Xqv/ADixGU/M6Uk/CdOuAD7+&#xA;pGf1DNX2pjMIb97OcgQ9I/Pnzd9Yv4fLVs1YLSk99TvMy/An+xRq/M+2bT2d7MEsUskx9ew93f8A&#xA;P7nP0GDYyPV47dXhs4mlDFXpRaGhJOYk8JjMwPROoyeHElLbbWr24Iiu7mSXtGXYkAfy7np4ZM4w&#xA;OQdTDKeRRUmq6ZYKfWnUzbVRPiYdwNsolJv8SMeaD/xpcXEgtrSEjnsJJDVtt+g2/HGFE7tEs1nY&#xA;M38kedtR8pW0l9DdEzSSfvIG+JZqKPhK7bCvXtlWowjIapysUAQbfU2jX7aho9jfsoRru3inKDoD&#xA;Kgen0VzRTjRIcYii8T/5yBjSx1201EqSs9qE4r1Z4navy+FhvnZ+zeb9zKPdL7w5+lnUS8A1t5b0&#xA;G4kHJ034jsncDbt1zcZ43uw1EeIWmn5Q+ZD5c/MTRdRL8bZp1trw9AIbn90xb2TkG+jNTr8PiYZR&#xA;6/qcFkn5/tCv5p6zIrGTkLYuEFeJW1jUivTbjvmH2WCcEfj97ssWYQxiwXmT3sjbRrxrt4ncU/z2&#xA;zaDGGjJrJHlsq21zykMbHkSfgfxpt38cqzY9rDhz33Qmp3MaXfoRbPGiluQ7tV9u37QzDEpRFDlb&#xA;dAwMuHrQe4f84v2g07T/ADf5zuBVdOs/q8DtUghVa4mX/knHmp154pRj3lnPmAw261m61G6nvZ39&#xA;S5ndpZ3b7RdzUn7znRw7UyQiIxEQB7/1uadTOIoAUxvzBfTs6Kh+CM0JAFK9ev8An0xjPxpGUgOJ&#xA;1+fMckt+iefk75am81/mJplhNV7KJvreoL+yYIKMVYDajtxT/ZZRr8ow4SRz5D4tVPtP9Gab/wAs&#xA;kP8AyLX+mcZZS+K/POvHXPzC1zUY3pZLcSLbINoxbw/uI2Veg5KA305vNNHhAZ4I+qyx+1v/AFLt&#xA;lY0R9o69iPu65fGe7kQyXJ9v+QJvW8i+XpORYnTbQMx6lhCob8RmgziskveXGn9RY7+dWifXvKYv&#xA;kWs2mSiSvf0pKI4+8qfozdezup4NRwnlMfaNx+lyNJOpV3vmDzXrMVrAbKEKbmUfvDQHgp/42Pb7&#xA;/DOx1GQDYc2/VZgBwjmwpYyzqEJBJ+7LMOXGYniAseTzmXFk4wIk+o96d3V3cXUvrXMrz3DVM08r&#xA;F3dixJZmYlid++aTa9hQetxw4IiPc3Bp6TDnKKDbiRs23Qg5sNHop5QTyj95cbUeHdVul11Fa2sb&#xA;yTAqI+oqa18B75gnIQjLixY48RSRZUvp2mLGK667bggbDr4DamVxxiWzpInilY2L1PQvzRXy/wDl&#xA;jN5Ps7JUbVJpJNQ1F3JJ9UqtEjFNhFEoJLH5ZrsuiAyccjy5B20cewmTuxk3UwK8aKwP2hWtfpzJ&#xA;MKaM0ssTRU9Tt+UbuO/xdaUYbn7xWmT086kxzYuGVjkX0J/zip5T+q6BqPmedKS6lJ9VtGI/3RAf&#xA;jYezymn+wzVduZ7mIDpv+Px1YPcNQr9QuaEg+k9CCQR8J6EbjNJD6gofB6abE5bjIYuY4t3qCa71&#xA;+WdlrdJjxkcN7uZPDtcVsmlvA6use6EEMpJ3G9afRmJHHFwpGQfXX5HeZrTXPy+sI42AutMH1K7i&#xA;G3Ex/wB2R7NGV3+fhmi12IwyHuO6eLi3Ztqenw6jpt1YT19G7ieGQilQJFKkivcVzHw5TjmJjnE2&#xA;mMqNvjXUPLFrYapeWt3bhryGZ47gyEseaMQ32vfPVMOLFkiJgWJC/m7yGmxEcVXaSeYnt7K1jgto&#xA;kjeVuR4qo+Fete+5plOsjEAAAbuPrDHGAIgApl5T8h+ZvMdqL6xsi1nyK+s7LGhZevEuRyA78a5q&#xA;oTwxn+8lQHzP6muWsHD5lmUP5O+Y/TaW8urS0hQFnZnZiqjck0XjQD/KzaHt7AKjCMj3bOD4oJ72&#xA;DeZfy4ubiVZINRU2LE+mwiYBmFQWILe21cxJ6XxZk3wnucrPo55ALNBJR+WdxEfUGpIvD4uXpHan&#xA;+ywfyeRvxOMOyyP4vsQ9/oOotbRTwUuIFDABAQ2zEFuBJ607ZiZtHkkOOPqH2/Jzzp5iI60pWV7w&#xA;t2L7SWwPJWA6KPD6KZjwNxooMwcZvoFGx8zXkxYS2qOh2qpKKPny9SuCOEk7Orjq5T2IBfeXkHSr&#xA;fSvJOhafbqFjgsYK07u0YZ2/2TsTnK6qZnlkT3lkmmrSrFpV5K32Y4JWb5KhOQwxJmAOpCYizT4Y&#xA;T1FlmjdeJBGx6ilafrzstZfFvzdvkjQARlvOTSNt+yn+GYTiZIdQ9u/5xrs5P0hrt2pKxLFBEyCo&#xA;VmdnIJHQlQn0V981naUtohxJAPd81LF88fnroH6P83LqMa0g1WISE9vWiokgH0cW+nPQfZrVeJp+&#xA;A84H7DuP0u60GS4V3PO/JH5fXnnzzRLLLyi8v2DCO6uRsX47+lE1CCzHev7I+isO09cIE1z6OHkH&#xA;i5Cf4Q+kTYWWn2Fva2kSW9nap6cUSbKiKNh+Gc3CRkTfMtOthyp5V5284tqchsLFyNPQ/vHG3rMD&#xA;/wARHb786vs7s/wxxz+v7v2uRpdNwbn6kPp8Ec+kxRSDkjA1H+yOWZZGOQkO1iLiwHzlcSWdw2mo&#xA;3g0jg9VO4Xb8cjqdQZRAHVpMaKG0Nmaw3OyOyqPAUDfrbMzs2VwI7i24+Sjrdhp80DGWOkso4ck+&#xA;FiO4J7jJarTY5bkepx9VCJjR5li1xpz2w+Acoh+0opTtuMwJYuH3OmnhMPc+/PLf/KO6X/zBwf8A&#xA;Jpc89zfWfeWCW/mNe/UvI2tz1oTavED7zfuh+L5m9k4+PVYx/SB+W/6G/TRvJH3vkm+tDNGxjos1&#xA;NmoDUDtvnoeu0Qyix9Q+12+pwylH0n1BI/rEyco3Rea/aLVBH3Gmc0ce9OljmyXw1u+lv+cZuMvk&#xA;zUboj982oNC7eIjgiZf+ThzR9qR4cgHkyzwMTvzev5rGlhX5s+U08xeWlUSehNZzJMs4HJljb4Je&#xA;IOxPFuVPEZt+xtacGU1/HEj49HJ02UxkfMMf0e70zQtJg0rR7IQWdsvGIM1ST1LNQbsx3JrmdLTG&#xA;cuKR3coEAUGPec/Ml/fQtpqyiKNxWYRilfBSTU08d82nZ+jhA8dX3MJZNx5PO5Ynico4oRnQg2HL&#xA;jIEWE/gvYbHQfrc393CjMR4mpoB7k7ZrcwvIQ5IlUbeW31zLe3EtxcHlJMxZj7nw+XbL5YgY04PG&#xA;btEaJxhFx6jUA4sD7CtT+rHQ3CUolyscxVqv1DUL+YyCPhGdkL7AAfjl0iZG1hpsuY2BsynyV5At&#xA;9X1y3s7gtNFX1LqnwqIlI5dN/i+z9OYmuzDDiMjz6e9ysmghigZTNnu6PqjRZIVsorWMcBbIsaJU&#xA;n4EHFdzv0GeeZ4kSvvecz4uE2OTCfz21IW3ksWgPx39zHGV/yI6yk/QyLmR2bKUcvFE0R/YjASJW&#xA;HzNdz39vJQvVD9huK7/hnSDX5j/EXYDNI9UJJB9cDPIaS/zAAVoO4GQOeRNy3ajl4ZX3vo3/AJxm&#xA;geHyJqCP1/SspFPA21vmi7WkDkBH839JcfVTEpAjueuZrHGUrqBbi2lgb7MqMh+TCmShLhkD3JBo&#xA;vHb+YWUUryijRVBX/KG1PvzsMUeMiurnk7WwuWV5ZGkc1dzUn55uYgAUGhDz2ouFCU+P9gjc1yyM&#xA;+Fsx5DE+SXa/pGv3lta6VDbtFHF+8uJJf3YLEngByoxFDXYd/bK/EhxGVuw3yRHDyULH8ukFGvro&#xA;t4xwig/4Jv6YJajuTHTd5TG90DSdOs0NrAFcuA0jEsxFD3PyyWCZlLfudlocMRPl0QOZjt3rv5Ya&#xA;B9R0c6jMtLm/oyVG6wj7H/Bfa+VM5PtnVceTgHKP3/j9Loe0c/FPhHKP3s3gmeGVZE6r28R4ZpZR&#xA;BFOsnESFFK/Pmm23mbSXt4wskkI52zGhpKOq19/snLtARhn6xsefuXRwED6hYPN8/wB9oUcivHQq&#xA;Rs0bdiPfqDnR5Ozgd4F2GXs0c4FjF3azac7RSirNvGfEdK5gThKJqQoury4JCVS2fTX5BWJtvy3s&#xA;5iKNez3Fwf8AkYYgfuizn9fK8p8nCzfU9FzDanYq8l85eXbu/wDMd1bQSxxW6MJn5GrEyryrxHat&#xA;QPpzq+z9XGGESIJPL5N8shEQSNkPZ+RdMiobmR7hu4+wv3D4vxyzJ2nM/SKcc5j0Ty006wtBS2t0&#xA;i91UV+/rmFPNOf1G2syJ5pN5msBM6yr/AHnHb3p2zM0eWhTtOz8/CKPJi5BBodiM2buks17/AHjT&#xA;/jIP+InMnS/V8HL0X1n3Ifytob61rdvZAH0Sedyw/ZiXdt+1fsj3OWa3UjDiMuvT3uZqc3hwMnvC&#xA;JHHGqIAkaABVGwAA2AzhSSS8wTe6Q6trhk5W9qaJ0eUd/Ye2Z+DTVvJrlJLrW/ubOXlC2xA5Id1O&#xA;w6jMieKMxuwBph35hPY21z+k4fha7BaS1r8Xqj7TD/JbqT88zdLqvDx8MuY5ef8AY7TFrhDEb5jk&#xA;8qv3kuS80h5SE8id+ngPamYUpmRsunGUykTLmX13+Wth9R8g6Bb0ofqUMrDwaZfVb8XzmtTK8kj5&#xA;uJkNyLJMpYOxV5V+bb3el6/pmr2jcJJYHhb+VhE/KjDvX1M6nsIRy4p45dDfz/sd72ZjhmxSxy3F&#xA;3+Pkv0HzBaavb8o/3dwgHrQHqPceK4NVpZYjvy73Ua3QywS33ieRTTMVwkDq8fK3V/5G/A7ZfgO7&#xA;laWXqpiup2fWeMf64/jm0w5Ohd3p8v8ACWN69/vGn/GQf8RObHS/V8HbaL6z7me/lpoaaboj6pcg&#xA;JNfAOGbbjAv2ev8AN9r3FM0XbGp8TLwR5R+/8fpcTtHPxT4Ryj96O1bWXuiYYarb9z3b5+2UYNOI&#xA;7nm6qUrSvMpilnmLzBaaPb8pDzuHUejAOrGnU+C5XKYiExjbybWPMK3F09xqF0pmJoUrUqOyhBUg&#xA;DMUytmckY9UFpNyuu63ZaLp0DXF3fzpbxs3wqOZALk7txUbmo6ZGWXhFuLkyw6B9rWNqtpZW9om6&#xA;W8SRKQKCiKFG1T4ZoJGzbiEq2BDsVYD+ctj63lqC6Aq1rcLU+CSKVP8Aw3HN97P5azGP86P3fgu2&#xA;7HnWUjvDxy0u7i0uEuLdzHNGaqw/z3GdfkxiYo8no8uKOSJjIWC9K8u+ZbbV4eLUivUH7yHxH8yV&#xA;6j9Wc5q9HLEe+Pe8hr+z5YDfOHf+tNLqP1LaRO5U0+Y3GYsDRDhYpVIFj5AIIO4PUZsHapFfaEt1&#xA;e2tu7FLN5g80v8saqS+9Dv2X3pmdi1PDEn+Ktve7bSaoRBkeYDI9T8wW8oWFGEdrFRY4U32XYVpm&#xA;uw6Ujc7yLgHHORukpk1eIV9NCx8TsP45lDAerOOlPUpbq/mVrGylupKIiD4VH2ix6KK+OSOOMRZR&#xA;mjjxQMpbvFfNF9q2oXD3txcSSCbd4+RKhQSBRa9B0zV5o726mM5TjxMdyli9/wD+cWPJXrX195vu&#xA;o/3dqDZaaT3ldazOP9VCFH+sfDMHW5NuFBfSWa5i7FXYqkXnux+u+UNVgpUiAyqPeEiUf8QzO7My&#xA;cGogfOvns5ehnw5onz+/Z8656E9iqW9xNbzJPA5jljNUdeoORlESFHkxnASBEhYL0byz5ph1RBb3&#xA;FI79RuvRZAOpX38RnPazRHEbH0/c8n2h2acJ4o7w+5R1CSGz9Z5mCRREksfDtk8QM6A5llA8QDB2&#xA;80yTa1FPJ8NgpKeidxwbYswHU983Y0QGMgfU5IjQ25srm0u3fdKxn23H3Zqo5iOaY6mQ57oKbTbm&#xA;OpA5r4r1+7Lo5gXIhnifJ5f5t1w6he+hEf8ARbclU/ym6Fv4DMfLPiPk8/2hqvFnQ+kfi0hkUlFL&#xA;bqaqAfbc/rzHmGeiNxISkaPd3GowWVnE0st5KkNtGu5aSQhVT7zmHMcPuTkhwl9y+SPK1r5W8q6d&#xA;oVvRhZwhZZFFPUmb4pZP9k5JzRZJ8UiWlPMgrsVdiq2WJJYnicVSRSrDxBFDhiSDYSDRt8wXds9r&#xA;dzW0n24JGjf5oSp/VnpmOYlESHUPcwlxAHvUcmyQ82rWtm4b1qTRmqiM1cMD7dD88hIiqLCRiRR3&#xA;QOrfmSNZvxY3hFv6QUBzssr0+03YNT6Mq0kMeMmnnJSx48hgNg7Nm3PQfKmo/XNKRGNZrb90470H&#xA;2D9230ZoNdi4Ml9Du0ZBRReu6gNP0i7vK0aKMmMnf4z8Kf8ADEZhSOzVI0Hhs8VfjUb/ALWQjJ1W&#xA;fH1Cgykxlq7KQKfMH+mGbdoTuQ9Z/wCcePJY1PzBL5iu4+VnpHw2tRs1042P/PNDX5lc1faGWo8P&#xA;UuVqJbU+kc0ziOxV2KuxV2Kvmv8ANe4Oj+ddSgSEkzOLhHOyH1lDkinX4mNc7zsvPxaeHkK+Wz1e&#xA;gz8WGPlswG51S9uKh5CqH9hPhWh7e/05mkkuSZEoXAhhl5N611LLXkGYkH2rt+GVPH5Z8UjLvKb6&#xA;J5qubHjBc1ntRQL/ADoB/KT1HscvxZzHY8m7DqTHY7h6f5K1y3F/G8MoktLr90zA7Bj9mo7EHx8c&#xA;nq4DJjsdN3OJE42Ey/M3UfTsLawU/FcOZJKH9mMUAI92av0Zz8y4mU9HnOVtCnHp89zcJb2yNJNM&#xA;yxwRLuWkdgioPcltslKYqy14I8GTyIfYfkXyrb+VvK1jo0VDJCnK6lH7c7/FI3y5bD2pnM58vHMy&#xA;TOXEbT7KmLsVdirsVdirxD86dD/SV5eTxLW6s+EiU6lPSTmv3Cv0Z1fZGThxxHff3l3HZ+XhoHkX&#xA;iWb13ahfTejZzSClVQ0r0r2wS5OPqp8OKR8mG5W8m7FUZpeo31jcCS0eh6uh+wwH8wwjJwbs45TD&#xA;cMi8yefrzU7yK4mtgCkKRD4zuVFWP2R1Yk5pM8/Ua5MZaniNgJE3mS/JPFY1B6bE0/HKTMsDlL6G&#xA;/wCcevyv1MrD5z8ycgXHPRrF1CkA7fWZBQdR/dj/AGX8ua3V6kn0j4piSdy9+zXMnYq7FXYq7FUj&#xA;84+aLby7o73b0e5eqWkB/bkI7/5K9WzO7P0UtRk4R9PU+TlaPSnNPh6dXiWm+Y7lr2RtQlMounLy&#xA;Sud1djufkfDO0zaSPCOAVwvRarRAx9AohhPnHRP0Vq7iMUtbistvToATuv8AsT+GHDk4o+aNNl44&#xA;78ww7zDLwsOFK+o4FfCm/wDDJycTtWdYwO8sayDzyrFAX3Oy/icqyZRH3sJ5BFEqoVQAKAZhymZH&#xA;dxZTJ5qdxHzjNB8Q3H9MoyxsWsDu9a/IH8mT5mvE8y69D/zr9o9bW3cbXcyHuD1iQj4v5j8P82aj&#xA;Vajh9I5uTGNvrBVVVCqAFAoANgAM1ba3irsVdirsVU7m5gtbeW5ncJDCpeRz0CqKk5KEDIiI5llG&#xA;JkaHMvnrzl5puPMWsPdtVLWOqWcJ/Zjr1P8AlN1bPQOz9ENPj4f4up83sNHpRhhXXqkOZzlK98n6&#xA;W0g6fJvdQVksHPUkDeL/AGQ6e9MxcmPhlxj4/rcLLi4JcY5Hn+t5J5kctcQwAHkiliPmf+bcjMuk&#xA;7WyXMDuCXw224qOTEfZp0zEyZ+50c8vQKnJNizgA13rX76VOYUssR1axikei314xTYt/MNh9x3/V&#xA;lZz9zYNOepZT+WHk6886eb7PSI14Wikz6jOorwtkI59airVCLt1OY2fVGMbbRgiH2zYWNnYWUFjZ&#xA;RLBaW0axQQoKKiIKKo+QGaEmzZZq+BXYq7FXYq7FVK7torq1mtpRWKdGjcf5Lih/XkoTMZCQ5hlG&#xA;VEEdHgN3ayWt1NbSiksLtHIPdTQ/qzvccxKIkORemhOwCEMbeAmpjUk9dhlnGe9mMku9LNTv9Hsi&#xA;eY5zD/dUZO3+tvRf15k4seSQvlHvLLx5Abl5Hr9811qc97GgRJnYhftUB/1h9OaDV5pGWx9Ly2fI&#xA;M0zIpWzuwAZiQOgJrTMIkliIgcluBLsVfYv5C/l3/hLygtzexcNa1gLcXgYfFHHT9zD7cQeTf5RP&#xA;hmp1OXiltyDEl6ZmMh2KuxV2KuxV2KuxV4v+axs9G8wvcStxS9jWZEUVYsPheg+a1+nOy7D4s2Gh&#xA;/Cad5ocnFjrueX6j5kvLmqQ/6PF/kn4z82/pnTYtHGO53LmMY1m69K39JT8cu3+x75R2nn4YcI5y&#xA;+513aOfhhwjnL7mPuodSp6HOcnHiFOjiaKXupVip6jMAhyFuKvU/+cfvy7/xT5tXUr2LnouilZ5+&#xA;Qqss9awxb9RUc29hQ/azF1WXhjQ5lBL6+zVMXYq7FXYq7FXYq7FXYq8h/wCciNP5ado+ogf3M0tu&#xA;x/4yqHX/AJNHOu9k8tTnDvAPy/tdl2dLch4cSAKnoM7UmhZdqTTGL65NxcvJ+z0T/VGcpqc3iTMn&#xA;mNTm8SZkh8x2hD3cVRzA3H2vlmNnh1bccuinYWN3f3tvY2cTTXd1IsNvCu7PI5Cqo+ZOYxNC219x&#xA;/lv5JtPJvlKz0WEK06j1b+dR/e3Lgeo/y24r/kgZpcuTjlbAsnytXYq7FXYq7FXYq7FXYqwb86NP&#xA;+ufl/euBV7SSG4UfJwjf8K5zd+z2Xg1cR/OBH2fscvRSrIPN8s6zdelbekv25dv9j3ztu08/DDhH&#xA;OX3OZ2jn4YcI5y+5IM550LsVcBy2pWu1PHARY3SC9u/5xl/LkS30/nK/jrBalrfSA3RpSKSzdvsA&#xA;8B7lu65otdkr0Bv4rD6QzWodirsVdirsVdirsVdirsVSvzTYfpDy1qtjx5NcWk0aAdeRjPGlP8qm&#xA;ZOiy+HmhPukPvbMUuGQPm+GNS1O3muZHMgIGyAfFUDpQgU+/Or1WrGSZk16nN4kzJAtqUQ+wjNt3&#xA;IWh/4bMM5+4NFqLajcEgqFSngK1+fLlkDlkUInQNJ1PzFrdholozPc306QQhiSqlzQsfAKPiPtlM&#xA;50CSkPvXy5oNh5f0Kx0WwXjaWEKwx+LcRu7f5TNVj7nNFORkbLeAmORV2KuxV2KuxV2KuxV2KuxV&#xA;2Kvgn8x9COg+fNd0rjxjt7yX0F6fuZG9SL/km65vMUuKILQRuxzLEOxV9Ef84q+Q+c1550vY/hi5&#xA;Welch+0R+/lHyU8AfdswNbl/hDZAdX0jmubHYq7FXYq7FXYq7FXYq7FXYq7FXyf/AM5VaCLLz5Z6&#xA;si0j1azXm3jNbn02/wCSZjzaaKVxruapjd4tmYwR+gaJf67rVlo9gnO8v5kghHYFzTk3gqjcnwwS&#xA;kIiyoD728r+XrDy55esNDsBS1sIVhQ0oWI3d2p+07Esfc5opzMiSW8BNMil2KuxV2KuxV2KuxV2K&#xA;uxV2KuxV4n/zlZoP1zyPY6ui1l0q8Cu3hDcrwb/koseZmilUq72Exs+Us2jU+iP+cVfIfOa886Xs&#xA;fwxcrPSuQ/aI/fyj5KeAPu2YGty/whsgOr6RzXNjsVdirsVdirsVdirsVdirsVdirsVYz+Zuhfp3&#xA;8v8AX9LC85ZrOVoE8Zoh6sX/ACURcswy4ZgoI2fDegaJf67rVlo9gnO8v5kghHYFzTk3gqjcnwzd&#xA;ykIiy0APvbyv5esPLnl6w0OwFLWwhWFDShYjd3an7TsSx9zminMyJJbwE0yKXYq7FXYq7FXYq7FX&#xA;Yq7FXYq7FXYq7FXhn5JflMNE8+eaNbuoeMOm3k+n6IrCnwMebTD/AJ4uiCniwzN1GfiiB382EY7v&#xA;c8wmbsVdirsVdirsVdirsVdirsVf/9k=</xmpGImg:image>
               </rdf:li>
            </rdf:Alt>
         </xmp:Thumbnails>
         <xmpTPg:MaxPageSize rdf:parseType="Resource">
            <stDim:w>1000.000000</stDim:w>
            <stDim:h>1000.000000</stDim:h>
            <stDim:unit>Points</stDim:unit>
         </xmpTPg:MaxPageSize>
         <xmpTPg:NPages>1</xmpTPg:NPages>
         <xmpTPg:HasVisibleTransparency>False</xmpTPg:HasVisibleTransparency>
         <xmpTPg:HasVisibleOverprint>False</xmpTPg:HasVisibleOverprint>
         <xmpTPg:PlateNames>
            <rdf:Seq>
               <rdf:li>Cyan</rdf:li>
               <rdf:li>Magenta</rdf:li>
               <rdf:li>Yellow</rdf:li>
               <rdf:li>Black</rdf:li>
            </rdf:Seq>
         </xmpTPg:PlateNames>
         <xmpTPg:SwatchGroups>
            <rdf:Seq>
               <rdf:li rdf:parseType="Resource">
                  <xmpG:groupName>Default Swatch Group</xmpG:groupName>
                  <xmpG:groupType>0</xmpG:groupType>
               </rdf:li>
            </rdf:Seq>
         </xmpTPg:SwatchGroups>
         <dc:format>image/svg+xml</dc:format>
      </rdf:Description>
   </rdf:RDF>
</x:xmpmeta>





















<?xpacket end="w"?>
	</metadata>
<polygon class="st0" points="365.6,835.7 435.9,695.1 348.7,742.9 "/>
<polygon class="st1" points="330.2,683.2 348.7,742.9 435.9,695.1 "/>
<polygon class="st2" points="330.2,683.2 374,622 435.9,695.1 "/>
<polygon class="st3" points="374,579.8 435.9,695.1 374,622 "/>
<polygon class="st4" points="365.6,835.7 404.9,996 499.9,804.8 "/>
<polygon class="st5" points="435.9,695.1 365.6,835.7 499.9,804.8 "/>
<polygon class="st6" points="584.9,658.5 499.9,804.8 435.9,695.1 "/>
<polygon class="st7" points="559.6,607.9 435.9,695.1 584.9,658.5 "/>
<polygon class="st8" points="374,579.8 469.6,543.1 435.9,695.1 "/>
<polygon class="st9" points="559.6,607.9 469.6,543.1 435.9,695.1 "/>
<polygon class="st2" points="344.1,426.8 469.6,543.1 374,579.8 "/>
<polygon class="st10" points="435.9,399.8 344.1,426.8 469.6,543.1 "/>
<polygon class="st3" points="327.4,361.5 385.9,349.6 344.1,426.8 "/>
<polygon class="st11" points="435.9,399.8 385.9,349.6 344.1,426.8 "/>
<polygon class="st12" points="435.9,295.8 385.9,349.6 435.9,399.8 "/>
<polygon class="st3" points="510.4,498.3 469.6,543.1 435.9,399.8 "/>
<polygon class="st1" points="510.4,377.3 435.9,399.8 510.4,498.3 "/>
<polygon class="st12" points="559.6,607.9 510.4,498.3 469.6,543.1 "/>
<polygon class="st13" points="584.9,347.8 510.4,377.3 510.4,498.3 "/>
<polygon class="st14" points="621.5,399.8 584.9,347.8 510.4,498.3 "/>
<polygon class="st15" points="584.9,526.4 559.6,607.9 638.3,596.7 "/>
<polygon class="st4" points="584.9,658.5 638.3,596.7 559.6,607.9 "/>
<polygon class="st3" points="510.4,498.3 584.9,526.4 559.6,607.9 "/>
<polygon class="st3" points="621.5,399.8 621.5,472.3 510.4,498.3 "/>
<polygon class="st1" points="584.9,526.4 621.5,472.3 510.4,498.3 "/>
<polygon class="st16" points="638.3,596.7 621.5,472.3 669.3,534.5 "/>
<polygon class="st6" points="708.6,449 621.5,472.3 669.3,534.5 "/>
<polygon class="st3" points="621.5,399.8 665,431.1 621.5,472.3 "/>
<polygon class="st17" points="708.6,449 665,431.1 621.5,472.3 "/>
<polygon class="st9" points="584.9,347.8 584.9,295.8 547.6,321.8 "/>
<polygon class="st18" points="510.4,377.3 547.6,321.8 584.9,347.8 "/>
<polygon class="st18" points="510.4,377.3 469.6,335 435.9,399.8 "/>
<polygon class="st1" points="435.9,295.8 469.6,335 435.9,399.8 "/>
<polygon class="st12" points="497.7,295.8 469.6,335 435.9,295.8 "/>
<polygon class="st19" points="510.4,377.3 497.7,295.8 469.6,335 "/>
<polygon class="st0" points="547.6,321.8 497.7,295.8 510.4,377.3 "/>
<polygon class="st20" points="514.6,262 497.7,295.8 547.6,321.8 "/>
<polygon class="st21" points="497.7,295.8 463.8,257.1 435.9,295.8 "/>
<polygon class="st15" points="689,399.8 665,431.1 708.6,449 "/>
<polygon class="st16" points="719.9,367.4 689,399.8 708.6,449 "/>
<polygon class="st15" points="689,347.8 689,399.8 719.9,367.4 "/>
<polygon class="st16" points="638.3,347.8 689,347.8 689,399.8 "/>
<polygon class="st14" points="632.6,373.8 621.5,399.8 665,431.1 "/>
<polygon class="st2" points="689,399.8 632.6,373.8 665,431.1 "/>
<polygon class="st22" points="638.3,347.8 632.6,373.8 689,399.8 "/>
<polygon class="st0" points="645.4,300 689,347.8 638.3,347.8 "/>
<polygon class="st19" points="719.9,323.9 689,347.8 719.9,367.4 "/>
<polygon class="st5" points="660.8,316.9 719.9,323.9 689,347.8 "/>
<polygon class="st16" points="665,262 719.9,323.9 660.8,316.9 "/>
<polygon class="st19" points="645.4,300 665,262 660.8,316.9 "/>
<polygon class="st18" points="645.4,255 665,262 645.4,300 "/>
<polygon class="st15" points="726.3,287.3 665,262 719.9,323.9 "/>
<polygon class="st5" points="708.6,255 665,262 726.3,287.3 "/>
<polygon class="st4" points="645.4,255 671.3,218.4 655.2,220 "/>
<polygon class="st6" points="665,262 671.3,218.4 645.4,255 "/>
<polygon class="st23" points="690.3,188.4 690.3,218.4 710.1,201.2 "/>
<polygon class="st15" points="671.3,218.4 690.3,188.4 690.3,218.4 "/>
<polygon class="st16" points="690.3,218.4 665,262 671.3,218.4 "/>
<polygon class="st6" points="708.6,255 690.3,218.4 665,262 "/>
<polygon class="st16" points="713.5,263.9 710.1,201.2 690.3,218.4 "/>
<polygon class="st24" points="632.6,165.3 673.3,176.2 638.3,184.3 "/>
<polygon class="st25" points="632.6,165.3 652.9,161.5 673.3,176.2 "/>
<polygon class="st26" points="673.3,176.2 680.8,174.8 652.9,161.5 "/>
<polygon class="st27" points="632.6,153.4 632.6,165.3 652.9,161.5 "/>
<polygon class="st14" points="576.3,156.5 632.6,165.3 632.6,153.4 "/>
<polygon class="st3" points="576.3,156.5 588.8,188.4 544.4,186.5 "/>
<polygon class="st15" points="638.3,184.3 613.8,218.4 588.8,188.4 "/>
<polygon class="st26" points="588.8,188.4 632.6,165.3 638.3,184.3 "/>
<polygon class="st28" points="638.3,184.3 668.2,199.4 673.3,176.2 "/>
<polygon class="st26" points="673.3,176.2 690.3,188.4 680.8,174.8 "/>
<polygon class="st29" points="668.2,199.4 690.3,188.4 673.3,176.2 "/>
<polygon class="st22" points="613.8,218.4 668.2,199.4 638.3,184.3 "/>
<polygon class="st4" points="613.8,218.4 671.3,218.4 668.2,199.4 "/>
<polygon class="st5" points="668.2,199.4 690.3,188.4 671.3,218.4 "/>
<polygon class="st17" points="588.8,188.4 564.4,228.4 544.4,186.5 "/>
<polygon class="st0" points="521.3,230.6 544.4,186.5 564.4,228.4 "/>
<polygon class="st16" points="514.6,262 521.3,230.6 554.1,255 "/>
<polygon class="st15" points="564.4,228.4 554.1,255 521.3,230.6 "/>
<polygon class="st5" points="564.4,228.4 613.8,218.4 588.8,188.4 "/>
<polygon class="st9" points="564.4,228.4 584.9,295.8 613.8,218.4 "/>
<polygon class="st5" points="554.1,255 564.4,228.4 584.9,295.8 "/>
<polygon class="st5" points="554.1,255 551.3,289.5 514.6,262 "/>
<polygon class="st19" points="551.3,289.5 547.6,321.8 514.6,262 "/>
<polygon class="st21" points="584.9,295.8 551.3,289.5 547.6,321.8 "/>
<polygon class="st16" points="554.1,255 584.9,295.8 551.3,289.5 "/>
<polygon class="st14" points="378.8,303.8 327.4,361.5 385.9,349.6 "/>
<polygon class="st10" points="435.9,295.8 378.8,303.8 385.9,349.6 "/>
<polygon class="st30" points="424.1,257.1 378.8,303.8 435.9,295.8 "/>
<polygon class="st18" points="385.9,184.3 435.9,218.4 374,218.4 "/>
<polygon class="st0" points="432.7,172.5 435.9,218.4 385.9,184.3 "/>
<polygon class="st12" points="443.2,132.4 432.7,172.5 404.9,139.1 "/>
<polygon class="st18" points="473.1,58.4 443.2,132.4 424.1,81.9 "/>
<polygon class="st12" points="404.9,139.1 424.1,81.9 443.2,132.4 "/>
<polygon class="st18" points="385.9,184.3 404.9,139.1 432.7,172.5 "/>
<polygon class="st19" points="463.8,257.1 424.1,257.1 435.9,295.8 "/>
<polygon class="st9" points="435.9,218.4 463.8,257.1 424.1,257.1 "/>
<polygon class="st5" points="461.3,184.3 463.8,257.1 435.9,218.4 "/>
<polygon class="st31" points="432.7,172.5 461.3,184.3 435.9,218.4 "/>
<polygon class="st9" points="469.6,153.4 461.3,184.3 432.7,172.5 "/>
<polygon class="st31" points="443.2,132.4 469.6,153.4 432.7,172.5 "/>
<polygon class="st9" points="483.2,120 443.2,132.4 469.6,153.4 "/>
<polygon class="st31" points="473.1,58.4 443.2,132.4 483.2,120 "/>
<polygon class="st18" points="503.8,72.5 483.2,120 473.1,58.4 "/>
<polygon class="st1" points="448.6,23.7 473.1,58.4 424.1,81.9 "/>
<polygon class="st32" points="510.4,42.5 473.1,58.4 503.8,72.5 "/>
<polygon class="st3" points="483.2,14.4 473.1,58.4 448.6,23.7 "/>
<polygon class="st10" points="510.4,42.5 473.1,58.4 483.2,14.4 "/>
<polygon class="st9" points="463.8,257.1 497.7,267.5 497.7,295.8 "/>
<polygon class="st19" points="514.6,262 497.7,267.5 497.7,295.8 "/>
<polygon class="st21" points="469.6,230.6 497.7,267.5 463.8,257.1 "/>
<polygon class="st9" points="466.8,188.4 469.6,230.6 510.4,215 "/>
<polygon class="st9" points="486.9,136.7 466.8,188.4 510.4,176.9 "/>
<polygon class="st20" points="510.4,176.9 510.4,215 466.8,188.4 "/>
<polygon class="st20" points="497.7,267.5 510.4,215 469.6,230.6 "/>
<polygon class="st20" points="534.4,120 510.4,176.9 486.9,136.7 "/>
<polygon class="st33" points="522.7,58.4 534.4,120 486.9,136.7 "/>
<polygon class="st20" points="561.9,52.8 534.4,120 522.7,58.4 "/>
<polygon class="st18" points="559.4,7.5 522.7,58.4 561.9,52.8 "/>
<polygon class="st3" points="514.6,0 522.7,58.4 559.4,7.5 "/>
<polygon class="st14" points="499.9,29.2 514.6,0 522.7,58.4 506.9,58.4 510.4,42.5 "/>
<polygon class="st34" points="486.9,136.7 486.9,111.4 503.8,72.5 506.9,58.4 522.7,58.4 "/>
<polygon class="st35" points="466.8,188.4 463.2,177.3 469.6,153.4 483.2,120 486.9,111.4 486.9,136.7 "/>
<polygon class="st6" points="469.6,230.6 462.8,228.4 461.7,193.9 466.8,188.4 "/>
<polygon class="st34" points="463.2,177.3 466.8,188.4 461.7,193.9 461.3,184.3 "/>
<polygon class="st35" points="463.8,257.1 469.6,230.6 462.8,228.4 "/>
<polygon class="st9" points="357.9,281.5 378.8,303.8 327.4,361.5 "/>
<polygon class="st0" points="301.9,289.3 327.4,361.5 357.9,281.5 "/>
<polygon class="st19" points="375.3,242.6 357.9,281.5 378.8,303.8 "/>
<polygon class="st36" points="370.7,253 332.1,252.2 357.9,281.5 "/>
<polygon class="st9" points="301.9,289.3 332.1,252.2 357.9,281.5 "/>
<polygon class="st9" points="366.1,252.9 344.1,184.3 315.3,219.7 "/>
<polygon class="st9" points="332.1,252.2 366.1,252.9 315.3,219.7 "/>
<polygon class="st12" points="301.9,289.3 332.1,252.2 287.8,246.6 "/>
<polygon class="st18" points="315.3,219.7 287.8,246.6 332.1,252.2 "/>
<polygon class="st18" points="307.5,181 315.3,219.7 278.9,195.5 "/>
<polygon class="st12" points="287.8,246.6 315.3,219.7 278.9,195.5 "/>
<polygon class="st32" points="344.1,184.3 307.5,181 315.3,219.7 "/>
<polygon class="st11" points="295.6,121.9 307.5,181 273.5,157.1 "/>
<polygon class="st32" points="278.9,195.5 273.5,157.1 307.5,181 "/>
<polygon class="st32" points="337.5,143 307.5,181 295.6,121.9 "/>
<polygon class="st9" points="344.1,184.3 307.5,181 337.5,143 "/>
<polygon class="st3" points="316.5,89.4 295.6,121.9 337.5,143 "/>
<polygon class="st14" points="272.6,89.4 295.6,121.9 316.5,89.4 "/>
<polygon class="st3" points="273.5,157.1 295.6,121.9 272.6,89.4 "/>
<polygon class="st37" points="621.5,472.3 638.3,596.7 584.9,526.4 "/>
<polygon class="st19" points="375.3,242.6 424.1,257.1 378.8,303.8 "/>
<polygon class="st9" points="435.9,218.4 375.3,242.6 424.1,257.1 "/>
<polygon class="st19" points="374,218.4 375.3,242.6 435.9,218.4 "/>
<polygon class="st25" points="576.3,156.5 632.6,165.3 588.8,188.4 "/>
</svg>
